<mxfile host="65bd71144e">
    <diagram id="j1CwwycCtEL2SGvIa0nN" name="Page-1">
        <mxGraphModel dx="905" dy="617" grid="1" gridSize="10" guides="1" tooltips="1" connect="1" arrows="1" fold="1" page="1" pageScale="1" pageWidth="827" pageHeight="1169" math="0" shadow="0">
            <root>
                <mxCell id="0"/>
                <mxCell id="1" parent="0"/>
                <mxCell id="2" value="" style="rounded=0;whiteSpace=wrap;html=1;fillColor=none;strokeWidth=2;" vertex="1" parent="1">
                    <mxGeometry x="240" y="320" width="400" height="320" as="geometry"/>
                </mxCell>
                <mxCell id="4" value="Player" style="shape=umlActor;verticalLabelPosition=bottom;verticalAlign=top;html=1;outlineConnect=0;strokeWidth=2;" vertex="1" parent="1">
                    <mxGeometry x="420" y="560" width="40" height="40" as="geometry"/>
                </mxCell>
                <mxCell id="5" value="Enemy" style="shape=umlActor;verticalLabelPosition=bottom;verticalAlign=top;html=1;outlineConnect=0;strokeWidth=2;fillColor=#fad9d5;strokeColor=#ae4132;" vertex="1" parent="1">
                    <mxGeometry x="280" y="360" width="40" height="40" as="geometry"/>
                </mxCell>
                <mxCell id="7" value="Enemy" style="shape=umlActor;verticalLabelPosition=bottom;verticalAlign=top;html=1;outlineConnect=0;strokeWidth=2;fillColor=#fad9d5;strokeColor=#ae4132;" vertex="1" parent="1">
                    <mxGeometry x="420" y="360" width="40" height="40" as="geometry"/>
                </mxCell>
                <mxCell id="8" value="Enemy" style="shape=umlActor;verticalLabelPosition=bottom;verticalAlign=top;html=1;outlineConnect=0;strokeWidth=2;fillColor=#fad9d5;strokeColor=#ae4132;" vertex="1" parent="1">
                    <mxGeometry x="560" y="360" width="40" height="40" as="geometry"/>
                </mxCell>
                <mxCell id="11" value="" style="endArrow=classic;html=1;fillColor=#fad7ac;strokeColor=#b46504;" edge="1" parent="1">
                    <mxGeometry width="50" height="50" relative="1" as="geometry">
                        <mxPoint x="450" y="584" as="sourcePoint"/>
                        <mxPoint x="480" y="584" as="targetPoint"/>
                    </mxGeometry>
                </mxCell>
                <mxCell id="12" value="" style="endArrow=classic;html=1;fillColor=#fad7ac;strokeColor=#b46504;" edge="1" parent="1">
                    <mxGeometry width="50" height="50" relative="1" as="geometry">
                        <mxPoint x="430" y="584" as="sourcePoint"/>
                        <mxPoint x="400" y="584" as="targetPoint"/>
                    </mxGeometry>
                </mxCell>
                <mxCell id="13" value="" style="endArrow=classic;html=1;fillColor=#fad7ac;strokeColor=#b46504;" edge="1" parent="1">
                    <mxGeometry width="50" height="50" relative="1" as="geometry">
                        <mxPoint x="299.58" y="430" as="sourcePoint"/>
                        <mxPoint x="300.08" y="460" as="targetPoint"/>
                        <Array as="points">
                            <mxPoint x="300.08" y="430"/>
                        </Array>
                    </mxGeometry>
                </mxCell>
                <mxCell id="14" value="" style="endArrow=classic;html=1;fillColor=#fad7ac;strokeColor=#b46504;" edge="1" parent="1">
                    <mxGeometry width="50" height="50" relative="1" as="geometry">
                        <mxPoint x="440" y="430" as="sourcePoint"/>
                        <mxPoint x="440" y="460" as="targetPoint"/>
                    </mxGeometry>
                </mxCell>
                <mxCell id="15" value="" style="endArrow=classic;html=1;fillColor=#fad7ac;strokeColor=#b46504;" edge="1" parent="1">
                    <mxGeometry width="50" height="50" relative="1" as="geometry">
                        <mxPoint x="579.58" y="430" as="sourcePoint"/>
                        <mxPoint x="580.08" y="460" as="targetPoint"/>
                    </mxGeometry>
                </mxCell>
                <mxCell id="16" value="" style="ellipse;whiteSpace=wrap;html=1;aspect=fixed;strokeWidth=2;direction=south;" vertex="1" parent="1">
                    <mxGeometry x="430" y="510" width="20" height="20" as="geometry"/>
                </mxCell>
                <mxCell id="19" value="" style="endArrow=classic;html=1;fillColor=#fad7ac;strokeColor=#b46504;" edge="1" parent="1">
                    <mxGeometry width="50" height="50" relative="1" as="geometry">
                        <mxPoint x="439.76" y="510" as="sourcePoint"/>
                        <mxPoint x="439.76" y="490" as="targetPoint"/>
                    </mxGeometry>
                </mxCell>
                <mxCell id="20" value="Projectile" style="text;html=1;align=center;verticalAlign=middle;resizable=0;points=[];autosize=1;strokeColor=none;fillColor=none;" vertex="1" parent="1">
                    <mxGeometry x="450" y="505" width="70" height="30" as="geometry"/>
                </mxCell>
                <mxCell id="21" value="" style="shape=crossbar;whiteSpace=wrap;html=1;rounded=1;strokeWidth=2;" vertex="1" parent="1">
                    <mxGeometry x="240" y="660" width="400" height="20" as="geometry"/>
                </mxCell>
                <mxCell id="22" value="" style="shape=crossbar;whiteSpace=wrap;html=1;rounded=1;direction=south;strokeWidth=2;" vertex="1" parent="1">
                    <mxGeometry x="200" y="320" width="20" height="320" as="geometry"/>
                </mxCell>
                <mxCell id="23" value="&lt;font style=&quot;font-size: 14px;&quot;&gt;160 pixels&lt;br&gt;(10 tiles)&lt;/font&gt;" style="text;html=1;align=center;verticalAlign=middle;resizable=0;points=[];autosize=1;strokeColor=none;fillColor=none;" vertex="1" parent="1">
                    <mxGeometry x="395" y="680" width="90" height="50" as="geometry"/>
                </mxCell>
                <mxCell id="24" value="&lt;font style=&quot;font-size: 14px;&quot;&gt;128 pixels&lt;br&gt;(8 tiles)&lt;/font&gt;" style="text;html=1;align=center;verticalAlign=middle;resizable=0;points=[];autosize=1;strokeColor=none;fillColor=none;" vertex="1" parent="1">
                    <mxGeometry x="100" y="460" width="90" height="50" as="geometry"/>
                </mxCell>
                <mxCell id="25" value="&lt;font color=&quot;#cc6600&quot;&gt;Orange arrows are direction&lt;br&gt;of movement for sprites&lt;/font&gt;" style="text;html=1;align=center;verticalAlign=middle;resizable=0;points=[];autosize=1;strokeColor=none;fillColor=none;" vertex="1" parent="1">
                    <mxGeometry x="350" y="270" width="180" height="40" as="geometry"/>
                </mxCell>
            </root>
        </mxGraphModel>
    </diagram>
</mxfile>